<svg xmlns="http://www.w3.org/2000/svg" version="1.1" xmlns:xlink="http://www.w3.org/1999/xlink" xmlns:svgjs="http://svgjs.dev/svgjs" width="1000" height="750" viewBox="0 0 1000 750"><rect width="1000" height="750" fill="#dedede"></rect><g transform="matrix(0.5191111111111111,0,0,0.5191111111111111,240.44444444444446,83)"><svg viewBox="0 0 320 360" data-background-color="#dedede" preserveAspectRatio="xMidYMid meet" height="1125" width="1000" xmlns="http://www.w3.org/2000/svg" xmlns:xlink="http://www.w3.org/1999/xlink"><g id="tight-bounds" transform="matrix(1,0,0,1,0,0)"><svg viewBox="0 0 320 360" height="360" width="320"><g><svg></svg></g><g><svg viewBox="0 0 320 360" height="360" width="320"><g><path xmlns="http://www.w3.org/2000/svg" d="M219.58 41.008c0.707 0 6.365 2.829 9.547 3.89-1.061 0.354-3.536-0.707-6.365-1.768 0.707 0 2.122 0.354 3.536 1.06-0.707-0.707-6.011-2.475-6.718-3.182M166.895 30.047c1.061-0.354 13.436 1.414 19.094 1.768 0.354-0.354-0.707-0.354-2.122-0.707 1.768-0.354 5.304 0.707 7.779 1.06-7.425 0.354-15.558-1.768-22.629-1.06-2.475 0-0.707-0.707-2.122-1.061M156.641 30.047c6.365 0 11.315 0 2.121 0.707-1.061-0.354-2.475-0.354-2.121-0.707M256.707 59.395c0.707 0 3.536 3.182 4.95 4.243-0.354 0.354-3.182-2.475-4.596-3.536 0.354 0.354 0 0-0.354-0.707M249.635 54.798c-2.829-2.475-3.889-2.475-4.243-3.889 2.475 1.414 4.243 2.829 4.243 3.889M204.022 32.522c0.354-0.354 1.061 0.354 2.829 0.707-2.122-0.354-1.768 0-1.061 0.707-2.475-0.354-3.182-0.707-2.475-1.414 1.414 0.707 1.768 0.354 0.707 0M103.602 36.765c0-0.354 1.414-1.061 2.475-1.414-1.061 0.707-0.707 1.061 1.061 0.353 0 0.354-2.122 1.061-3.536 1.768 0.707-0.354 1.414-1.414 0-0.707M211.094 28.986c-1.061 0.354-4.95-1.768-8.84-2.475-2.122-0.707 8.486 1.768 8.84 2.475M2.475 203.66c2.122 8.84 0.707 8.486 0 0M2.829 150.621c0.354-1.414 0.707-5.304 1.06-4.95-1.061 8.486-2.829 12.376-3.182 18.74 1.061-5.657-0.354 3.182-0.707 5.304 0.354 2.829 0.354-1.768 1.061-1.06 0.707 1.061-1.414 15.912-0.707 7.779-0.707 7.425 0 15.558 1.414 17.679-1.768 11.315 7.072 36.773 8.84 42.077 0.354 0.354 0-1.768 0.707-0.353 0.707 4.597 3.889 7.779 4.95 12.729 1.061 1.414 5.304 9.193 6.011 10.962 1.414 2.829 2.122 2.475 3.536 5.303 4.243 8.133 10.961 15.912 17.326 23.337 20.508 24.044 51.978 43.845 86.984 50.918 35.006 7.425 71.779 2.122 100.419-11.669 1.768-1.061 1.414-1.414 3.536-2.122 9.901-3.182 21.923-13.436 28.641-17.326 3.182-3.536 11.669-9.547 12.73-13.082 6.011-4.95 12.022-13.083 15.204-18.387 1.768-2.829 3.182-2.829 3.889-4.597-0.354 0 5.657-7.425 7.426-11.668-0.707 0-1.768 2.122-1.768 0 12.729-24.398 19.801-57.282 15.911-79.912 0.707 27.934-6.365 59.05-19.801 78.851-6.011 12.729-18.387 26.519-29.701 36.42-1.768 1.768-3.536 3.889-5.658 5.304-6.718 5.657-14.144 10.254-21.922 14.497-18.387 10.254-38.895 19.094-62.94 19.447 41.37-3.536 78.497-24.398 99.006-49.856-15.558 15.204-22.276 21.215-39.602 30.055-1.414 2.475-13.083 7.425-20.862 9.547 4.597-2.122 14.144-5.657 17.326-8.486-25.812 12.376-54.453 19.448-81.326 15.558 10.254 0 24.751 0.354 38.541-2.121 2.122-0.707 3.182-1.414 5.658-1.768 26.873-6.011 52.685-19.094 71.072-37.481-10.608 9.547-26.519 20.862-36.774 24.398 9.547-5.304 26.873-15.558 32.53-23.337-11.315 11.315-32.53 22.63-45.966 27.58-2.122 0.354 1.414-1.414-2.122 0-4.243 1.061-2.475 1.061-3.536 1.768-16.265 4.597-35.006 8.486-50.563 7.072-2.829-0.354-3.889-1.061-6.365-1.061-2.829-0.354-5.304-0.354-8.486-0.354-12.376-1.414-25.812-6.365-35.713-10.607-5.304-2.475-10.608-4.243-15.912-7.426-4.243-2.475-7.779-5.304-11.314-8.132-13.436-9.901-24.751-19.801-35.36-33.945-19.094-26.519-28.994-59.757-27.58-92.641 1.414-32.884 14.497-65.061 35.359-88.752-1.061 1.061 1.414-2.475 3.536-4.596 0 0.707-0.354 1.768 2.122-0.707 2.122-2.475-0.707-0.707 0.353-2.122 21.923-24.044 60.111-43.492 99.36-44.199 1.414-1.061 3.889-2.475 6.718-1.768 0 0.354-1.768 0.354-1.768 0.354 3.889-0.354 7.425-0.354 9.193 0.353 0.354-0.354-1.414-0.707 0-0.707 2.475 0.707 3.182 0 4.597 0.707-1.061 0-2.122 0-2.829 0.354 8.84 0 14.497 2.122 23.337 2.829-4.597-1.061-5.657-1.061-9.193-2.122 3.889 0.707 5.657 1.414 7.425 1.061-0.707 0-0.354-1.061 0.354-0.707 7.072 1.768 7.779 2.475 15.204 4.95 0.707-0.707-3.182-1.061-4.243-2.122 7.072 2.475 13.436 4.243 17.68 7.072-1.414-1.061-5.657-2.475-8.84-3.889-0.354 0.354 1.061 0.707 1.414 1.414-3.536-1.768-8.486-3.536-13.436-4.243 4.243 1.061 7.072 2.475 8.84 3.182-3.889-0.707-8.84-3.182-14.498-4.243 9.193 2.829 26.519 9.193 37.127 14.851-3.889-2.475-8.486-4.243-10.961-5.657 2.122 0.354 4.597 1.768 4.597 1.06 2.475 1.061 5.657 3.536 7.425 3.89-3.182-2.122-9.547-5.304-11.668-6.365 26.519 12.022 50.21 32.177 65.414 57.989 1.414 2.475 3.536 8.133 5.304 8.84-0.354-1.768-1.768-2.829-3.182-5.657 0.707 0 0.707-1.061 0-2.122-1.414-1.768 0 1.414-1.415-0.354-6.365-11.669-14.144-21.923-26.165-33.237 6.718 6.365 1.768 1.768 0.353-0.354 9.193 8.133 19.801 21.923 24.398 28.995-0.707-1.061-1.061-1.768-0.707-1.768 8.486 14.497 13.79 27.58 19.094 46.32 0.354 0.354 0-1.414 0.707-0.353 3.536 14.851 4.597 27.227 4.243 38.541 2.829-19.094-3.536-48.796-14.851-72.133-1.414-2.829-1.414-0.707-2.829-3.889 0-1.061-1.061-3.182-1.768-4.597-14.144-23.337-31.47-39.956-51.978-53.038 1.414 0.707 4.243 2.829 4.244 2.475-38.188-25.105-82.387-28.641-118.807-20.862-2.475 1.061-3.536 2.122-6.365 3.536 5.304-1.768 8.486-2.122 13.437-3.183 1.061-1.061-4.597 0.354-2.122-0.707 0.354 0.354 4.95-0.707 6.011-0.353 0 0.354-1.414 0.707-1.768 1.06 11.669-2.475 23.691-2.829 33.945-2.121-6.011 0.354-16.972-0.707-20.508 1.061 3.536-0.354 8.486-0.707 11.668-0.354-4.243 0-12.022 0.354-15.558 0.707-0.354-0.354 5.657-1.061 1.768-1.06-1.768 0.354-4.597 0.354-5.657 1.414-30.409 2.829-60.111 18.74-80.973 37.481-4.243 3.536-9.193 7.425-12.375 11.314-7.779 8.84-12.729 17.68-18.387 25.459 3.536-7.425 11.315-18.74 20.508-28.287 9.193-9.547 19.094-17.68 24.398-21.923 0 1.414 8.486-5.304 11.669-7.425-2.122 1.768 1.414-0.707 2.121-0.354 11.315-6.718 20.508-9.193 30.763-13.083-2.475 0.707-4.597 1.414-4.951 1.061 2.475-0.707 3.889-1.414 3.536-1.768-9.901 2.829-25.459 9.547-37.834 16.972 22.276-15.204 50.564-24.398 78.497-24.751 27.934-0.707 55.16 6.365 76.729 17.68 14.497 6.365 28.287 18.033 39.249 29.348 3.182 2.829 0.707-0.707 5.304 4.243-1.414-0.707-2.475-1.414-0.707 0.707 2.829 3.182-0.707-2.475 3.889 3.182-0.354 0-1.768-1.768-1.768-1.061 12.376 10.961 21.923 30.762 27.58 43.846-1.414-5.304-4.95-12.729-7.779-18.033 8.486 15.558 11.315 24.751 14.851 38.541 1.414 1.061-0.707-4.95 0.707-2.121 0.354 2.122 0.707 8.84 2.122 9.9-1.061-6.718-2.829-14.851-4.243-16.265 1.061 0.707-1.768-8.133-3.536-10.254-0.707-5.657-5.657-15.558-9.901-22.984-15.204-29.702-42.431-54.099-72.839-67.536 0-0.707-1.768-1.414-2.476-2.121-30.055-12.729-66.122-16.265-100.773-8.133-35.006 8.486-67.889 28.641-91.227 57.636 1.061-3.536 9.901-10.254 10.255-13.083-10.254 10.961-21.215 25.459-28.641 41.016-7.779 15.558-12.022 31.47-13.79 43.138" fill="#000000" fill-rule="nonzero" stroke="none" stroke-width="1" stroke-linecap="butt" stroke-linejoin="miter" stroke-miterlimit="10" stroke-dasharray="" stroke-dashoffset="0" font-family="none" font-weight="none" font-size="none" text-anchor="none" style="mix-blend-mode: normal" data-fill-palette-color="tertiary"></path></g><g transform="matrix(1,0,0,1,70,90)"><svg viewBox="0 0 180 180" height="180" width="180"><g><svg viewBox="0 0 180 180" height="180" width="180"><g><svg viewBox="0 0 180 180" height="180" width="180"><g id="textblocktransform"><svg viewBox="0 0 180 180" height="180" width="180" id="textblock"><g><svg viewBox="0 0 180 180" height="180" width="180"><g transform="matrix(1,0,0,1,55.12606413770853,47.57359312880715)"><svg viewBox="0 0 69.74787172458294 84.8528137423857" height="84.8528137423857" width="69.74787172458294"><g><svg xmlns="http://www.w3.org/2000/svg" xmlns:xlink="http://www.w3.org/1999/xlink" version="1.1" x="0" y="0" viewBox="29.298999786376953 0.9386491775512695 231.0559844970703 281.0946044921875" enable-background="new 0 0 283.46 283.46" xml:space="preserve" height="84.8528137423857" width="69.74787172458294" class="icon-o-0" data-fill-palette-color="accent" id="o-0"><path d="M214.057 218.789c-0.062-0.049-1.818-0.99-4.425-2.384h-0.004c-7.868-4.198-23.471-12.471-23.471-12.471-0.4-0.212-1.609-1.011-2.738-0.39l-20.438 12.865-9.494 5.973c-0.662 0.48-0.588 1.267 0.52 1.863l26.843 14.19c1.83 0.974 2.321 0.608 3.422 0.026l29.517-18.649C214.419 219.421 214.38 219.03 214.057 218.789zM183.105 236.621l-0.373 0.188c-0.336-0.039-0.549-0.13-0.861-0.295l-25.401-13.43 27.926-17.58c0.123 0.037 0.707 0.338 0.746 0.357l25.342 13.463L183.105 236.621z" fill="#61777f" data-fill-palette-color="accent"></path><path d="M207.766 175.229c-0.349-0.433-0.834-0.821-1.451-1.129-2.25-1.13-5.647-1.031-7.711 0.267-0.201 0.127-0.385 0.26-0.547 0.398-0.388 0.169-0.761 0.361-1.115 0.587-3.541 2.228-3.272 4.628-1.28 6.321-0.236-0.182-0.502-0.35-0.8-0.498-2.25-1.129-5.647-1.03-7.711 0.268-0.203 0.126-0.385 0.26-0.547 0.398-0.388 0.169-0.76 0.363-1.115 0.588-3.541 2.229-3.272 4.628-1.28 6.32-0.236-0.182-0.502-0.349-0.799-0.498-2.25-1.129-5.648-1.031-7.714 0.268-0.2 0.128-0.383 0.262-0.545 0.398-0.387 0.168-0.76 0.363-1.114 0.588-3.541 2.229-3.273 4.629-1.281 6.322-0.236-0.184-0.504-0.351-0.799-0.498-2.25-1.131-5.65-1.033-7.713 0.265-0.201 0.128-0.384 0.262-0.548 0.399-0.385 0.168-0.758 0.362-1.112 0.588-3.541 2.228-3.273 4.629-1.283 6.32-0.234-0.182-0.502-0.349-0.799-0.497-2.248-1.13-5.648-1.032-7.711 0.267-0.201 0.128-0.383 0.262-0.547 0.4-0.08 0.033-0.16 0.071-0.24 0.112h-0.012c-0.298 0.142-0.584 0.298-0.863 0.474-3.539 2.229-3.271 4.629-1.281 6.32-0.234-0.182-0.502-0.35-0.799-0.498-2.248-1.127-5.648-1.029-7.709 0.268-0.203 0.127-0.385 0.262-0.547 0.399-0.387 0.168-0.76 0.362-1.117 0.586-3.11 1.959-3.281 4.05-1.925 5.677 0.187 0.226 0.403 0.44 0.644 0.646-0.235-0.182-0.502-0.35-0.798-0.498-0.105-0.053-0.213-0.104-0.324-0.146v-0.004c-1.952-0.842-4.615-0.838-6.569-0.002h-0.015c-0.285 0.123-0.554 0.264-0.804 0.42-0.202 0.127-0.384 0.262-0.546 0.399-0.386 0.167-0.759 0.362-1.116 0.586-3.54 2.229-3.272 4.629-1.282 6.321-0.235-0.182-0.502-0.35-0.798-0.497-2.25-1.13-5.649-1.031-7.711 0.267-0.202 0.127-0.384 0.262-0.547 0.4-0.386 0.167-0.759 0.361-1.115 0.586-3.54 2.227-3.272 4.627-1.282 6.32-0.235-0.182-0.502-0.35-0.799-0.498-2.25-1.129-5.648-1.03-7.71 0.268-0.202 0.126-0.384 0.262-0.547 0.398-0.386 0.168-0.759 0.363-1.115 0.588-8.295 5.219 4.316 11.391 11.023 7.172 4.291-2.701 2.988-5.655-0.198-7.294-0.134-0.165-0.288-0.325-0.462-0.478 2.751 2.162 8.358 3.057 12.114 0.695 4.291-2.7 2.988-5.656-0.198-7.296-0.134-0.166-0.288-0.326-0.462-0.476 2.751 2.16 8.358 3.057 12.114 0.692 4.292-2.7 2.988-5.653-0.197-7.295-0.135-0.165-0.289-0.325-0.463-0.478 2.75 2.162 8.359 3.06 12.114 0.694 0.778-0.489 1.375-0.987 1.807-1.489h0.004c1.943-2.242 0.598-4.463-2.008-5.804-0.135-0.167-0.289-0.327-0.463-0.479 2.75 2.164 8.358 3.061 12.112 0.695 4.291-2.699 2.988-5.654-0.196-7.293-0.097-0.119-0.203-0.234-0.32-0.345v-0.003c-0.045-0.045-0.094-0.087-0.143-0.131 0.055 0.044 0.108 0.086 0.166 0.134h0.01c2.807 2.063 8.26 2.876 11.938 0.562 0.299-0.188 0.568-0.375 0.814-0.562v-0.002c3.287-2.539 1.953-5.203-1.012-6.729-0.134-0.166-0.289-0.326-0.464-0.479 2.752 2.164 8.359 3.06 12.113 0.696 4.291-2.699 2.987-5.653-0.197-7.295-0.135-0.168-0.289-0.326-0.463-0.478 2.752 2.161 8.358 3.058 12.115 0.694 4.289-2.699 2.985-5.655-0.199-7.293-0.133-0.168-0.287-0.327-0.463-0.479 2.752 2.161 8.358 3.059 12.114 0.693C212.253 179.823 210.951 176.869 207.766 175.229zM107.848 232.361c3.254-2.048 9.603 0.266 6.413 2.271C111.007 236.68 104.658 234.369 107.848 232.361zM116.674 234.16c1.244 1.082 1.014 2.194-1.207 3.594-2.778 1.746-6.686 1.315-9.444-0.068-2.381-1.193-2.14-2.696-0.652-3.824 0.149 0.934 0.86 1.824 2.05 2.424 2.25 1.129 5.648 1.03 7.71-0.268C115.976 235.485 116.479 234.835 116.674 234.16zM119.301 225.285c3.253-2.049 9.602 0.266 6.413 2.271C122.46 229.604 116.111 227.292 119.301 225.285zM128.127 227.082c1.244 1.082 1.014 2.196-1.207 3.594-2.778 1.748-6.686 1.318-9.444-0.064-2.38-1.195-2.14-2.699-0.652-3.826 0.149 0.936 0.859 1.826 2.049 2.424 2.25 1.129 5.649 1.029 7.711-0.268C127.429 228.41 127.932 227.759 128.127 227.082zM130.754 218.208c3.254-2.049 9.603 0.266 6.413 2.271C133.913 222.529 127.564 220.214 130.754 218.208zM139.58 220.007c1.244 1.08 1.016 2.195-1.206 3.592-2.779 1.748-6.686 1.318-9.444-0.064-2.38-1.195-2.14-2.697-0.652-3.826 0.149 0.935 0.859 1.826 2.049 2.424 2.25 1.13 5.649 1.029 7.711-0.269C138.882 221.332 139.387 220.682 139.58 220.007zM142.207 211.132c3.253-2.049 9.604 0.265 6.414 2.271C145.367 215.451 139.018 213.139 142.207 211.132zM151.033 212.929c1.213 1.055 1.025 2.137-1.035 3.48v0.002c-0.055 0.037-0.113 0.073-0.172 0.111-2.777 1.748-6.686 1.316-9.443-0.066-0.027-0.015-0.053-0.026-0.078-0.047h-0.01c-2.285-1.188-2.033-2.664-0.562-3.779 0.148 0.936 0.857 1.826 2.049 2.424 2.25 1.13 5.648 1.031 7.711-0.268C150.335 214.255 150.839 213.605 151.033 212.929zM162.486 205.853c1.246 1.082 1.016 2.193-1.207 3.593-2.777 1.749-6.684 1.318-9.443-0.065-2.381-1.195-2.139-2.697-0.649-3.825 0.147 0.935 0.856 1.825 2.049 2.423 2.25 1.13 5.647 1.032 7.711-0.266C161.789 207.182 162.292 206.529 162.486 205.853zM160.074 206.328c-3.254 2.047-9.604-0.266-6.414-2.273C156.914 202.007 163.264 204.32 160.074 206.328zM165.113 196.979c3.254-2.048 9.604 0.265 6.414 2.272C168.273 201.298 161.923 198.985 165.113 196.979zM173.941 198.776c1.244 1.083 1.014 2.194-1.209 3.593-0.58 0.365-1.209 0.635-1.867 0.821l0 0c-1.643 0.464-3.463 0.407-5.137 0h-0.002c-0.867-0.211-1.693-0.515-2.438-0.887-2.381-1.194-2.14-2.698-0.65-3.826 0.148 0.935 0.857 1.826 2.049 2.424 2.25 1.128 5.648 1.031 7.711-0.267C173.242 200.104 173.746 199.453 173.941 198.776zM176.566 189.902c3.256-2.048 9.604 0.266 6.414 2.271C179.727 194.222 173.376 191.91 176.566 189.902zM185.395 191.699c1.244 1.083 1.015 2.195-1.207 3.594-2.778 1.748-6.687 1.318-9.442-0.065-2.382-1.194-2.142-2.698-0.652-3.826 0.148 0.937 0.859 1.827 2.049 2.425 2.25 1.127 5.648 1.031 7.711-0.268C184.695 193.027 185.199 192.376 185.395 191.699zM188.02 182.826c3.256-2.049 9.604 0.264 6.414 2.271C191.18 187.146 184.83 184.832 188.02 182.826zM196.848 184.623c1.243 1.082 1.014 2.195-1.207 3.592-2.777 1.75-6.687 1.32-9.442-0.063-2.382-1.194-2.142-2.696-0.652-3.825 0.147 0.936 0.858 1.826 2.049 2.424 2.25 1.129 5.648 1.029 7.711-0.268C196.148 185.951 196.652 185.298 196.848 184.623zM199.475 175.75c3.254-2.047 9.603 0.265 6.412 2.271C202.632 180.069 196.285 177.755 199.475 175.75zM207.094 181.14c-2.777 1.748-6.687 1.318-9.443-0.066-2.381-1.195-2.142-2.697-0.651-3.824 0.147 0.935 0.858 1.824 2.049 2.424 2.25 1.128 5.647 1.029 7.711-0.269 0.844-0.53 1.348-1.183 1.543-1.858C209.544 178.63 209.314 179.742 207.094 181.14z" fill="#61777f" data-fill-palette-color="accent"></path><path d="M193.736 168.848c-0.348-0.433-0.836-0.821-1.453-1.13-2.25-1.129-5.646-1.031-7.711 0.268-0.201 0.127-0.383 0.26-0.547 0.399-0.385 0.166-0.758 0.36-1.115 0.587-3.539 2.227-3.271 4.627-1.279 6.318-0.237-0.182-0.504-0.348-0.801-0.496-2.25-1.129-5.647-1.03-7.711 0.267-0.201 0.128-0.383 0.261-0.547 0.399-0.385 0.168-0.758 0.361-1.115 0.588-3.539 2.227-3.271 4.628-1.281 6.32-0.235-0.183-0.502-0.35-0.799-0.498-2.25-1.129-5.647-1.031-7.711 0.268-0.201 0.127-0.383 0.261-0.547 0.4-0.387 0.168-0.758 0.362-1.115 0.586-3.539 2.228-3.271 4.627-1.28 6.32-0.236-0.182-0.502-0.349-0.8-0.498-2.25-1.129-5.647-1.029-7.711 0.268-0.2 0.128-0.383 0.262-0.547 0.398-0.385 0.17-0.758 0.362-1.115 0.588-3.538 2.229-3.272 4.629-1.28 6.321-0.235-0.183-0.502-0.349-0.799-0.498-2.25-1.13-5.648-1.032-7.711 0.267-0.201 0.127-0.384 0.262-0.547 0.398-0.386 0.168-0.759 0.363-1.116 0.588-3.265 2.053-3.291 4.26-1.712 5.915l0 0c0.133 0.14 0.277 0.274 0.432 0.405-0.186-0.145-0.392-0.276-0.616-0.405h-0.009c-0.058-0.032-0.115-0.062-0.175-0.092-2.144-1.076-5.332-1.037-7.413 0.093-0.102 0.057-0.202 0.113-0.298 0.174-0.201 0.129-0.384 0.262-0.547 0.399-0.386 0.168-0.759 0.362-1.115 0.587-3.541 2.227-3.272 4.628-1.281 6.32-0.236-0.182-0.502-0.348-0.798-0.496-2.25-1.129-5.649-1.031-7.711 0.267-0.202 0.127-0.384 0.261-0.547 0.399-0.386 0.168-0.759 0.361-1.116 0.586-2.684 1.689-3.179 3.479-2.393 4.982 0.25 0.479 0.631 0.931 1.112 1.338-0.236-0.181-0.502-0.349-0.798-0.498-2.25-1.127-5.649-1.029-7.712 0.27-0.201 0.125-0.383 0.262-0.547 0.4-0.385 0.166-0.759 0.359-1.115 0.584-3.541 2.229-3.272 4.629-1.281 6.322-0.236-0.182-0.502-0.35-0.799-0.498-2.25-1.129-5.649-1.031-7.711 0.267-0.202 0.127-0.383 0.261-0.547 0.399-0.385 0.166-0.758 0.361-1.115 0.586-8.295 5.22 4.316 11.393 11.023 7.174 4.291-2.701 2.988-5.655-0.198-7.295-0.133-0.166-0.288-0.328-0.461-0.479 2.75 2.163 8.357 3.059 12.113 0.694 4.29-2.699 2.987-5.653-0.199-7.294-0.133-0.166-0.288-0.326-0.461-0.479 2.75 2.163 8.357 3.059 12.113 0.694 1.147-0.722 1.896-1.461 2.313-2.188v-0.002c1.146-1.994-0.178-3.9-2.512-5.103-0.133-0.165-0.288-0.325-0.462-0.479 2.75 2.164 8.358 3.062 12.113 0.695 4.29-2.698 2.989-5.654-0.198-7.294-0.134-0.167-0.289-0.326-0.462-0.478 2.75 2.162 8.358 3.06 12.114 0.694 0.662-0.416 1.189-0.839 1.599-1.257v-0.004c2.245-2.319 0.897-4.646-1.798-6.032-0.133-0.167-0.286-0.325-0.461-0.478 2.75 2.162 8.357 3.058 12.113 0.693 4.291-2.699 2.988-5.652-0.199-7.294-0.133-0.167-0.287-0.325-0.463-0.478 2.752 2.162 8.359 3.058 12.115 0.695 4.291-2.701 2.988-5.655-0.199-7.295-0.133-0.166-0.287-0.326-0.463-0.479 2.752 2.163 8.359 3.059 12.115 0.695 4.291-2.699 2.988-5.654-0.197-7.295-0.135-0.166-0.289-0.324-0.463-0.478 2.75 2.162 8.357 3.06 12.113 0.695C198.225 173.443 196.921 170.488 193.736 168.848zM93.817 225.98c3.254-2.048 9.603 0.266 6.414 2.271C96.976 230.3 90.627 227.987 93.817 225.98zM102.644 227.779c1.244 1.081 1.014 2.195-1.207 3.594-2.777 1.748-6.685 1.316-9.443-0.067-2.381-1.194-2.14-2.696-0.652-3.826 0.15 0.937 0.859 1.826 2.049 2.424 2.25 1.13 5.649 1.032 7.712-0.266C101.945 229.105 102.449 228.455 102.644 227.779zM105.271 218.902c3.254-2.046 9.603 0.268 6.414 2.273C108.43 223.224 102.081 220.912 105.271 218.902zM114.097 220.701c1.244 1.084 1.014 2.196-1.207 3.594-2.778 1.748-6.686 1.317-9.444-0.065-2.381-1.194-2.14-2.697-0.652-3.826 0.149 0.937 0.859 1.827 2.049 2.425 2.25 1.129 5.649 1.03 7.711-0.267C113.398 222.03 113.902 221.378 114.097 220.701zM116.724 211.828c3.254-2.049 9.603 0.266 6.414 2.271C119.883 216.146 113.534 213.835 116.724 211.828zM125.55 213.625c0.994 0.864 1.047 1.75-0.104 2.785h-0.002c-0.289 0.26-0.655 0.527-1.1 0.81-2.778 1.747-6.686 1.317-9.443-0.067-0.47-0.234-0.838-0.48-1.114-0.738h-0.002c-1.121-1.033-0.73-2.182 0.464-3.086 0.149 0.935 0.858 1.824 2.049 2.422 0.642 0.323 1.376 0.545 2.147 0.664h1.603l-1.603 0.006c0.95 0.15 1.955 0.147 2.905-0.004h0.032c0.972-0.153 1.886-0.465 2.627-0.932C124.852 214.953 125.356 214.302 125.55 213.625zM139.631 197.673c3.253-2.047 9.604 0.265 6.414 2.273C142.789 201.994 136.441 199.681 139.631 197.673zM128.177 204.751c3.254-2.047 9.604 0.266 6.414 2.271C131.336 209.071 124.987 206.759 128.177 204.751zM137.003 206.548c1.245 1.082 1.014 2.195-1.207 3.593-2.779 1.749-6.686 1.317-9.444-0.065-2.381-1.195-2.14-2.697-0.652-3.826 0.149 0.937 0.859 1.828 2.049 2.424 2.25 1.131 5.649 1.031 7.711-0.266C136.305 207.876 136.809 207.225 137.003 206.548zM148.457 199.472c1.244 1.082 1.015 2.193-1.207 3.593-0.067 0.044-0.137 0.085-0.207 0.126l0 0c-2.631 1.523-6.186 1.196-8.841 0.002v-0.005c-0.135-0.062-0.266-0.124-0.395-0.188-2.381-1.194-2.139-2.697-0.651-3.826 0.149 0.937 0.859 1.828 2.048 2.425 2.25 1.13 5.648 1.032 7.71-0.267C147.757 200.8 148.264 200.147 148.457 199.472zM151.083 190.598c3.254-2.047 9.604 0.266 6.412 2.272C154.242 194.917 147.895 192.605 151.083 190.598zM159.91 192.396c1.244 1.082 1.014 2.195-1.207 3.594-2.777 1.747-6.686 1.317-9.442-0.066-2.382-1.194-2.142-2.696-0.652-3.826 0.149 0.936 0.858 1.826 2.05 2.424 2.25 1.129 5.647 1.032 7.711-0.266C159.21 193.723 159.716 193.071 159.91 192.396zM162.537 183.521c3.254-2.048 9.604 0.266 6.412 2.273C165.697 187.841 159.348 185.528 162.537 183.521zM171.363 185.318c1.244 1.083 1.016 2.196-1.207 3.594-2.777 1.748-6.686 1.317-9.443-0.065-2.381-1.194-2.139-2.697-0.651-3.825 0.149 0.936 0.858 1.827 2.049 2.424 2.25 1.128 5.65 1.029 7.711-0.268C170.664 186.646 171.167 185.994 171.363 185.318zM173.99 176.445c3.254-2.049 9.604 0.264 6.412 2.271C177.15 180.765 170.8 178.453 173.99 176.445zM182.816 178.242c1.244 1.084 1.016 2.194-1.207 3.594-2.777 1.746-6.686 1.317-9.443-0.066-2.381-1.193-2.139-2.696-0.651-3.825 0.149 0.937 0.858 1.826 2.049 2.425 2.25 1.127 5.647 1.029 7.713-0.269C182.119 179.569 182.621 178.919 182.816 178.242zM185.443 169.369c3.254-2.047 9.604 0.266 6.414 2.271C188.604 173.688 182.253 171.375 185.443 169.369zM193.062 174.757c-2.777 1.75-6.686 1.318-9.443-0.064-2.381-1.193-2.139-2.697-0.652-3.824 0.15 0.936 0.859 1.825 2.052 2.424 2.248 1.129 5.647 1.028 7.711-0.269 0.842-0.53 1.347-1.183 1.541-1.858C195.514 172.248 195.285 173.361 193.062 174.757z" fill="#61777f" data-fill-palette-color="accent"></path><path d="M258.167 194.08l-101.926-51.152c-1.52-0.789-2.762-1.183-3.832-1.306l3.9-2.505c2.631-1.687 4.775-5.765 4.775-9.096V6.634c0-1.958-0.724-3.164-1.826-3.51-3.615-1.458-6.951-3.312-10.961-1.305l-1.9 1.072L34.509 74.628c-2.921 1.874-5.21 6.266-5.21 9.893v118.68 4.721c0.184 4.886 2.621 5.025 6.249 6.548l1.137 0.448c-0.086 0.439-0.181 0.941-0.275 1.496h-0.001c-0.199 1.146-0.402 2.498-0.544 3.881-0.226 2.188 1.297 3.982 1.084 6.205l-0.118 1.078c-0.077 0.963 0.145 1.812 1.066 2.258l101.939 51.135c3.064 1.535 7.707 1.4 10.508-0.363l106.975-67.328c1.798-1.131 1.964-5.546 2.136-7.419 0.516-0.532 0.453-1.614 0.453-1.614l0.062-1.061 0.356-6.048 0.029-0.482C260.296 195.71 259.568 194.781 258.167 194.08zM159.164 6.634v123.387c0 2.725-1.852 6.17-3.893 7.479L52.908 203.198l-13.276 8.521c-1.097 0.704-1.675 0.728-1.675-1.273v-7.245V87.059c0-2.724 1.851-6.168 3.891-7.477l115.64-74.221C158.585 4.658 159.164 4.634 159.164 6.634zM36.035 87.059v116.142 7.245c0 1.203 0.271 2.121 0.737 2.729l-1.419-0.539c-2.492-0.947-4.283-1.154-4.418-4.745v-4.69V84.521c0-3.112 2.04-6.967 4.458-8.518l113.94-73.132c2.029-1.166 4.644-0.27 7.115 0.872L40.81 77.963C38.179 79.651 36.035 83.729 36.035 87.059zM258.119 203.185l-0.047 0.861-0.105 1.086c-0.03 0.162-0.067 0.326-0.104 0.39-0.213 0.349-0.25 0.313-0.336 0.767-0.121 1.524-0.396 4.515-1.231 5.363L149.32 278.979c-2.195 1.381-6.119 1.528-8.621 0.272L38.752 228.145c-0.009-0.024-0.029-0.128-0.005-0.415l0.114-1.044c0.118-1.226-0.173-2.312-0.485-3.3l-0.113-0.354-0.375-1.278c-0.101-0.437-0.153-0.854-0.111-1.262 0.152-1.465 0.373-2.891 0.582-4.068l0 0c0.023-0.133 0.047-0.262 0.07-0.387 0.205 0.137 0.425 0.264 0.653 0.381h0.003c0.019 0.012 0.037 0.021 0.056 0.029l101.933 51.155c2.746 1.38 6.979 1.237 9.435-0.31l80.871-50.889 0 0h0.002l26.933-16.947L258.119 203.185zM257.652 197.604l-108.166 68.062c-1.85 1.166-5.365 1.316-7.551 0.221l-32.723-16.424h-0.001l-65.84-33.045-3.368-1.688c-0.417-0.21-0.696-0.389-0.97-0.631l0.581-0.235 0.37-0.149c0.223-0.104 0.454-0.227 0.687-0.375l15.796-10.139h0.001l92.609-59.439c1.529-0.621 3.215-0.719 6.289 0.88l101.938 51.158C258.852 196.574 258.621 196.994 257.652 197.604z" fill="#61777f" data-fill-palette-color="accent"></path><path d="M179.705 162.468c-0.348-0.434-0.834-0.821-1.451-1.131-2.25-1.129-5.647-1.03-7.711 0.267-0.201 0.126-0.383 0.261-0.547 0.399-0.387 0.168-0.76 0.36-1.115 0.586-3.541 2.229-3.272 4.63-1.28 6.322-0.236-0.183-0.502-0.351-0.8-0.498-2.25-1.131-5.647-1.031-7.711 0.268-0.202 0.128-0.385 0.26-0.549 0.4-0.385 0.166-0.758 0.36-1.112 0.586-3.541 2.228-3.273 4.627-1.281 6.321-0.235-0.183-0.502-0.35-0.799-0.499-2.25-1.13-5.647-1.031-7.711 0.268-0.203 0.127-0.386 0.26-0.548 0.398-0.387 0.168-0.76 0.362-1.114 0.588-3.541 2.229-3.272 4.629-1.281 6.321-0.235-0.183-0.504-0.351-0.799-0.498-2.25-1.13-5.65-1.032-7.712 0.265-0.202 0.129-0.384 0.262-0.547 0.401-0.386 0.167-0.759 0.361-1.115 0.585-3.54 2.229-3.273 4.631-1.282 6.322-0.235-0.182-0.502-0.348-0.798-0.497-2.25-1.129-5.649-1.031-7.711 0.267-0.201 0.127-0.384 0.26-0.546 0.399-0.387 0.168-0.759 0.362-1.116 0.586-3.54 2.228-3.272 4.629-1.281 6.322-0.235-0.183-0.502-0.351-0.799-0.499-2.25-1.127-5.648-1.029-7.71 0.268-0.202 0.127-0.385 0.262-0.547 0.398-0.386 0.17-0.759 0.363-1.116 0.588-2.83 1.781-3.227 3.672-2.254 5.222v0.002c0.244 0.39 0.574 0.759 0.973 1.099-0.235-0.184-0.502-0.351-0.798-0.498-0.537-0.27-1.141-0.469-1.775-0.603h-0.022c-1.186-0.241-2.48-0.237-3.665 0.001v0.004c-0.83 0.17-1.604 0.459-2.249 0.864-0.201 0.128-0.384 0.263-0.546 0.399-0.387 0.168-0.76 0.361-1.116 0.587-3.54 2.227-3.273 4.628-1.281 6.319-0.236-0.182-0.502-0.348-0.798-0.496-2.25-1.131-5.649-1.033-7.711 0.265-0.202 0.128-0.384 0.262-0.547 0.401-0.386 0.168-0.759 0.362-1.116 0.588-2.283 1.436-2.982 2.942-2.657 4.287 0.18 0.74 0.669 1.433 1.377 2.032-0.236-0.182-0.503-0.35-0.799-0.497-2.25-1.129-5.649-1.031-7.711 0.266-0.202 0.127-0.383 0.262-0.546 0.4-0.387 0.168-0.759 0.361-1.116 0.586-8.295 5.221 4.317 11.394 11.023 7.172 4.291-2.701 2.988-5.654-0.198-7.293-0.133-0.166-0.289-0.326-0.462-0.479 2.751 2.162 8.358 3.059 12.114 0.695 1.516-0.954 2.333-1.94 2.616-2.885v-0.002c0.52-1.736-0.754-3.348-2.815-4.408-0.133-0.166-0.288-0.325-0.462-0.479 2.751 2.164 8.358 3.059 12.114 0.695 4.29-2.7 2.988-5.653-0.198-7.294-0.134-0.167-0.289-0.326-0.463-0.478 2.751 2.162 8.358 3.059 12.114 0.693 1.025-0.645 1.731-1.305 2.168-1.95v-0.007c1.393-2.079 0.059-4.088-2.366-5.336-0.134-0.167-0.288-0.326-0.463-0.479 2.751 2.164 8.359 3.058 12.114 0.694 4.291-2.698 2.988-5.653-0.198-7.293-0.134-0.168-0.288-0.327-0.462-0.478 2.75 2.16 8.359 3.058 12.112 0.695 4.291-2.703 2.988-5.658-0.196-7.295-0.136-0.167-0.287-0.326-0.463-0.478 2.75 2.161 8.358 3.057 12.112 0.694 4.291-2.699 2.988-5.654-0.196-7.295-0.134-0.166-0.287-0.326-0.464-0.478 2.752 2.161 8.359 3.057 12.113 0.694 4.293-2.698 2.988-5.654-0.197-7.295-0.133-0.166-0.286-0.326-0.463-0.477 2.752 2.162 8.359 3.057 12.113 0.693C184.195 167.061 182.891 164.106 179.705 162.468zM79.787 219.599c3.255-2.046 9.604 0.268 6.414 2.273C82.946 223.919 76.598 221.606 79.787 219.599zM88.613 221.397c1.244 1.083 1.015 2.196-1.207 3.595-2.778 1.746-6.686 1.315-9.443-0.068-2.381-1.194-2.14-2.697-0.653-3.825 0.149 0.935 0.859 1.827 2.049 2.424 2.25 1.13 5.649 1.031 7.711-0.265C87.915 222.726 88.419 222.074 88.613 221.397zM91.24 212.522c3.254-2.048 9.603 0.267 6.414 2.272C94.399 216.841 88.05 214.531 91.24 212.522zM100.066 214.321c0.768 0.668 0.974 1.347 0.498 2.093v0.006c-0.296 0.467-0.854 0.961-1.705 1.494-2.778 1.748-6.686 1.316-9.443-0.065-0.893-0.447-1.417-0.938-1.645-1.435v-0.004c-0.38-0.83 0.063-1.683 0.992-2.388 0.147 0.92 0.836 1.796 1.99 2.392v0.002c0.02 0.011 0.04 0.021 0.06 0.029 2.096 1.053 5.19 1.038 7.271-0.023H98.1c0.147-0.077 0.289-0.157 0.425-0.242C99.368 215.648 99.872 214.998 100.066 214.321zM102.693 205.447c3.254-2.048 9.603 0.266 6.414 2.271C105.853 209.767 99.504 207.455 102.693 205.447zM111.52 207.244c1.245 1.082 1.015 2.195-1.206 3.592-2.778 1.75-6.686 1.319-9.444-0.063-2.38-1.194-2.139-2.696-0.652-3.826 0.149 0.937 0.859 1.826 2.049 2.425 2.25 1.129 5.648 1.029 7.711-0.267C110.821 208.571 111.325 207.919 111.52 207.244zM114.147 198.369c3.254-2.047 9.603 0.266 6.413 2.272C117.307 202.69 110.957 200.376 114.147 198.369zM122.973 200.167c1.072 0.933 1.05 1.889-0.396 3.025v0.002c-0.233 0.184-0.503 0.371-0.811 0.564-2.778 1.748-6.686 1.318-9.444-0.065-0.323-0.161-0.598-0.329-0.828-0.5v-0.002c-1.464-1.094-1.109-2.349 0.176-3.323 0.149 0.936 0.859 1.827 2.05 2.424 2.249 1.131 5.648 1.03 7.71-0.269C122.274 201.494 122.779 200.843 122.973 200.167zM125.6 191.294c3.254-2.049 9.603 0.264 6.413 2.272C128.759 195.613 122.411 193.3 125.6 191.294zM134.426 193.089c1.245 1.082 1.015 2.195-1.206 3.596-2.778 1.747-6.686 1.316-9.444-0.066-2.38-1.195-2.139-2.697-0.651-3.826 0.149 0.936 0.859 1.826 2.049 2.424 2.25 1.129 5.648 1.031 7.711-0.266C133.728 194.417 134.232 193.767 134.426 193.089zM137.053 184.216c3.253-2.045 9.603 0.266 6.413 2.273C140.213 188.537 133.864 186.224 137.053 184.216zM145.878 186.014c1.246 1.084 1.017 2.196-1.207 3.594-2.776 1.748-6.685 1.317-9.442-0.065-2.381-1.193-2.14-2.696-0.651-3.826 0.149 0.935 0.859 1.826 2.048 2.425 2.251 1.129 5.649 1.028 7.711-0.267C145.182 187.343 145.686 186.691 145.878 186.014zM148.505 177.14c3.254-2.047 9.604 0.266 6.414 2.271C151.666 181.458 145.316 179.148 148.505 177.14zM157.333 178.938c1.244 1.083 1.015 2.194-1.209 3.593-2.776 1.747-6.684 1.317-9.442-0.066-2.379-1.193-2.14-2.695-0.649-3.824 0.147 0.936 0.858 1.826 2.049 2.425 2.25 1.126 5.647 1.029 7.711-0.271C156.634 180.266 157.139 179.614 157.333 178.938zM159.958 170.065c3.256-2.049 9.604 0.265 6.414 2.271C163.119 174.382 156.77 172.071 159.958 170.065zM168.787 171.86c1.244 1.083 1.014 2.196-1.207 3.595-2.776 1.748-6.686 1.317-9.442-0.065-2.382-1.194-2.142-2.697-0.652-3.825 0.147 0.936 0.859 1.826 2.05 2.423 2.25 1.13 5.647 1.029 7.711-0.267C168.087 173.188 168.591 172.537 168.787 171.86zM171.414 162.987c3.254-2.047 9.603 0.265 6.412 2.271C174.572 167.307 168.223 164.994 171.414 162.987zM179.033 168.378c-2.777 1.748-6.686 1.316-9.443-0.065-2.381-1.196-2.141-2.699-0.651-3.826 0.149 0.935 0.858 1.826 2.049 2.425 2.25 1.129 5.648 1.029 7.712-0.27 0.844-0.531 1.348-1.182 1.543-1.857C181.484 165.869 181.253 166.981 179.033 168.378z" fill="#61777f" data-fill-palette-color="accent"></path><g fill="#61777f" data-fill-palette-color="accent"><path d="M165.675 156.087c-0.348-0.435-0.836-0.822-1.452-1.131-2.248-1.129-5.647-1.03-7.711 0.267-0.201 0.127-0.384 0.26-0.548 0.399-0.385 0.166-0.76 0.361-1.114 0.586-3.539 2.228-3.271 4.629-1.281 6.322-0.235-0.182-0.502-0.351-0.799-0.498-2.25-1.13-5.647-1.031-7.711 0.268-0.201 0.126-0.384 0.261-0.547 0.4-0.386 0.166-0.759 0.359-1.115 0.586-3.539 2.228-3.271 4.629-1.281 6.32-0.236-0.182-0.502-0.348-0.799-0.497-2.25-1.13-5.648-1.032-7.711 0.267-0.201 0.127-0.383 0.261-0.547 0.399-0.385 0.167-0.758 0.362-1.115 0.586-3.541 2.228-3.272 4.628-1.281 6.321-0.235-0.182-0.502-0.35-0.799-0.497-2.25-1.13-5.648-1.032-7.711 0.267-0.202 0.127-0.383 0.26-0.547 0.398-0.385 0.167-0.759 0.361-1.116 0.587-3.54 2.229-3.272 4.629-1.281 6.321-0.235-0.182-0.502-0.35-0.799-0.497-2.25-1.13-5.648-1.031-7.71 0.266-0.202 0.127-0.384 0.261-0.547 0.401-0.385 0.167-0.758 0.361-1.115 0.586-3.541 2.229-3.272 4.628-1.281 6.32-0.235-0.183-0.502-0.349-0.798-0.498-2.25-1.129-5.648-1.03-7.711 0.268-0.202 0.127-0.384 0.26-0.547 0.398-0.385 0.168-0.758 0.363-1.115 0.588-3.541 2.229-3.273 4.629-1.282 6.322-0.235-0.184-0.502-0.352-0.798-0.5-2.25-1.129-5.649-1.029-7.711 0.268-0.202 0.128-0.383 0.262-0.547 0.4-0.386 0.168-0.759 0.36-1.115 0.586-2.42 1.521-3.06 3.127-2.588 4.527v0.002c0.219 0.649 0.677 1.256 1.307 1.791-0.236-0.182-0.503-0.348-0.799-0.496-2.25-1.131-5.648-1.031-7.711 0.266-0.201 0.128-0.383 0.262-0.547 0.4-0.386 0.168-0.759 0.362-1.115 0.586-3.54 2.229-3.273 4.629-1.281 6.322-0.236-0.183-0.502-0.35-0.799-0.499-2.25-1.13-5.649-1.032-7.711 0.267-0.202 0.127-0.384 0.263-0.547 0.398-0.386 0.168-0.759 0.363-1.116 0.588-1.895 1.191-2.699 2.437-2.731 3.594v0.002l0 0c-0.104 3.904 8.582 6.83 13.754 3.576 1.884-1.186 2.689-2.418 2.731-3.574l0 0v-0.002l0 0v-0.002c0.049-1.467-1.145-2.799-2.929-3.715-0.133-0.166-0.288-0.326-0.462-0.479 2.751 2.163 8.359 3.059 12.114 0.695 4.291-2.699 2.987-5.653-0.198-7.295-0.133-0.168-0.288-0.326-0.462-0.478 2.75 2.163 8.358 3.058 12.114 0.695 1.387-0.873 2.189-1.771 2.533-2.646l0 0c0.719-1.827-0.575-3.538-2.731-4.649-0.133-0.166-0.288-0.324-0.462-0.477 2.75 2.161 8.358 3.057 12.114 0.694 4.291-2.699 2.988-5.654-0.198-7.293-0.134-0.167-0.288-0.328-0.462-0.479 2.75 2.161 8.358 3.059 12.113 0.694 4.291-2.7 2.988-5.655-0.198-7.294-0.134-0.167-0.288-0.326-0.462-0.479 2.75 2.162 8.358 3.059 12.113 0.695 4.291-2.699 2.989-5.654-0.198-7.294-0.133-0.165-0.287-0.325-0.462-0.478 2.75 2.162 8.358 3.058 12.114 0.695 4.291-2.699 2.987-5.654-0.199-7.296-0.133-0.166-0.287-0.325-0.461-0.476 2.75 2.16 8.356 3.057 12.112 0.693 4.291-2.701 2.988-5.656-0.198-7.293-0.134-0.168-0.287-0.326-0.461-0.479 2.75 2.161 8.356 3.059 12.112 0.693C170.164 160.681 168.861 157.727 165.675 156.087zM65.756 213.218c3.254-2.047 9.604 0.266 6.414 2.273C68.916 217.539 62.567 215.227 65.756 213.218zM73.652 216.417h0.002c0.481-0.429 0.788-0.908 0.929-1.4 0.523 0.455 0.786 0.915 0.75 1.398v0.002c-0.05 0.668-0.668 1.383-1.957 2.191-2.777 1.749-6.685 1.318-9.444-0.066-1.3-0.652-1.818-1.397-1.778-2.125 0.035-0.602 0.452-1.188 1.126-1.699 0.097 0.605 0.43 1.193 0.976 1.697h0.003c0.295 0.271 0.653 0.517 1.07 0.727 2.25 1.128 5.649 1.031 7.711-0.268C73.269 216.731 73.472 216.58 73.652 216.417zM77.209 206.143c3.255-2.048 9.604 0.265 6.414 2.271C80.369 210.462 74.02 208.149 77.209 206.143zM86.036 207.939c1.244 1.082 1.015 2.195-1.207 3.594-2.777 1.747-6.685 1.317-9.443-0.066-2.38-1.193-2.14-2.695-0.652-3.824 0.149 0.936 0.859 1.824 2.049 2.422 2.25 1.13 5.649 1.033 7.711-0.266C85.338 209.268 85.842 208.617 86.036 207.939zM88.663 199.065c3.254-2.048 9.603 0.265 6.414 2.271C91.823 203.385 85.474 201.072 88.663 199.065zM97.49 200.862c0.845 0.735 1.01 1.485 0.333 2.331h-0.001c-0.32 0.396-0.827 0.814-1.539 1.264-2.777 1.748-6.685 1.318-9.443-0.065-0.744-0.374-1.231-0.777-1.505-1.194H85.33c-0.597-0.908-0.164-1.855 0.857-2.632 0.149 0.935 0.858 1.827 2.049 2.425 0.148 0.073 0.301 0.145 0.459 0.207 1.893 0.766 4.405 0.762 6.3 0.001h0.009c0.336-0.136 0.652-0.293 0.943-0.477C96.791 202.189 97.295 201.539 97.49 200.862zM100.116 191.989c3.254-2.047 9.604 0.265 6.414 2.272C103.276 196.309 96.927 193.996 100.116 191.989zM108.943 193.787c1.245 1.084 1.015 2.194-1.207 3.594-2.777 1.746-6.685 1.317-9.443-0.067-2.381-1.192-2.14-2.694-0.652-3.824 0.149 0.935 0.859 1.826 2.049 2.423 2.25 1.129 5.649 1.031 7.711-0.268C108.244 195.114 108.748 194.462 108.943 193.787zM111.569 184.912c3.254-2.045 9.604 0.267 6.414 2.273C114.729 189.232 108.38 186.919 111.569 184.912zM120.396 186.708c1.245 1.084 1.015 2.196-1.207 3.594-2.778 1.75-6.686 1.32-9.444-0.064-2.38-1.195-2.139-2.697-0.651-3.824 0.149 0.935 0.858 1.825 2.049 2.422 2.25 1.129 5.648 1.031 7.71-0.266C119.698 188.037 120.202 187.386 120.396 186.708zM123.023 177.835c3.254-2.047 9.604 0.267 6.414 2.271C126.182 182.156 119.833 179.843 123.023 177.835zM131.85 179.634c1.245 1.084 1.015 2.195-1.208 3.594-2.777 1.747-6.685 1.316-9.443-0.066-2.381-1.195-2.139-2.697-0.651-3.826 0.149 0.936 0.859 1.828 2.049 2.426 2.25 1.127 5.648 1.029 7.711-0.27C131.15 180.96 131.655 180.31 131.85 179.634zM134.476 170.76c3.254-2.048 9.604 0.265 6.415 2.271C137.636 175.078 131.287 172.767 134.476 170.76zM143.303 172.557c1.243 1.083 1.016 2.196-1.207 3.595-2.777 1.746-6.685 1.316-9.444-0.066-2.381-1.193-2.14-2.698-0.651-3.825 0.149 0.936 0.859 1.827 2.049 2.422 2.25 1.13 5.65 1.032 7.71-0.267C142.604 173.882 143.107 173.233 143.303 172.557zM145.93 163.684c3.254-2.049 9.604 0.264 6.414 2.271C149.089 168.001 142.74 165.689 145.93 163.684zM154.755 165.48c1.244 1.082 1.017 2.195-1.207 3.593-2.776 1.748-6.686 1.318-9.442-0.063-2.381-1.196-2.141-2.698-0.651-3.827 0.149 0.937 0.858 1.825 2.051 2.424 2.248 1.13 5.647 1.03 7.709-0.269C154.059 166.807 154.562 166.156 154.755 165.48zM157.382 156.607c3.255-2.049 9.604 0.264 6.414 2.271C160.542 160.925 154.193 158.613 157.382 156.607zM165.001 161.998c-2.776 1.746-6.686 1.317-9.442-0.067-2.381-1.194-2.14-2.696-0.651-3.823 0.149 0.934 0.858 1.824 2.051 2.422 2.248 1.131 5.647 1.032 7.709-0.267 0.846-0.531 1.35-1.183 1.543-1.857C167.453 159.487 167.223 160.6 165.001 161.998z" fill="#61777f" data-fill-palette-color="accent"></path><path d="M154.02 121.094V26.195c0-4.062-2.979-6.184-6.515-3.916L48.436 85.864c-3.005 1.93-5.335 6.409-5.335 10.123v94.897c0 4.062 2.979 6.185 6.513 3.914l99.07-63.584C151.689 129.287 154.02 124.807 154.02 121.094zM48.436 192.966c-1.73 1.109-3.045 0.639-3.154-1.913 1.057 0.524 2.468 0.36 3.854-0.528l96.596-61.996c2.838-1.823 5.084-6.122 5.084-9.663V27.783c0-1.835-0.637-3.257-1.723-3.906 1.596-0.823 2.746-0.151 2.746 2.318v94.898c0 3.027-1.998 6.788-4.334 8.288L48.436 192.966z" fill="#61777f" data-fill-palette-color="accent"></path></g></svg></g></svg></g><g><path d="M9.415 119.769V119.769C9.007 118.605 8.768 117.575 8.699 116.679 8.636 115.782 8.665 114.825 8.785 113.808V113.808L13.244 111.927 13.4 112.372 10.903 114.894C10.597 115.73 10.432 116.503 10.409 117.213 10.394 117.927 10.496 118.596 10.715 119.221V119.221C11.09 120.288 11.661 121.035 12.43 121.46 13.199 121.885 14.063 121.929 15.021 121.593V121.593C15.78 121.327 16.323 120.945 16.653 120.448 16.989 119.948 17.217 119.299 17.339 118.501 17.467 117.7 17.598 116.724 17.732 115.573V115.573C17.897 114.044 18.203 112.809 18.649 111.869 19.094 110.923 19.944 110.229 21.199 109.789V109.789C21.861 109.557 22.557 109.493 23.288 109.597 24.022 109.708 24.731 109.953 25.416 110.332 26.095 110.714 26.703 111.195 27.241 111.776 27.777 112.351 28.174 113.009 28.434 113.749V113.749C28.738 114.616 28.92 115.465 28.98 116.295 29.044 117.118 29.012 117.967 28.883 118.843V118.843L24.548 120.671 24.395 120.234 26.857 117.756C27.109 117 27.251 116.347 27.283 115.798 27.321 115.246 27.234 114.667 27.021 114.061V114.061C26.742 113.266 26.243 112.699 25.524 112.358 24.801 112.026 24.037 112.002 23.23 112.285V112.285C22.326 112.602 21.712 113.131 21.386 113.872 21.068 114.617 20.836 115.72 20.688 117.182V117.182C20.541 118.474 20.35 119.569 20.115 120.469 19.881 121.376 19.521 122.108 19.036 122.667 18.553 123.231 17.841 123.679 16.901 124.009V124.009C16.034 124.313 15.202 124.397 14.405 124.261 13.616 124.13 12.887 123.837 12.217 123.384 11.555 122.935 10.985 122.396 10.505 121.768 10.026 121.139 9.662 120.473 9.415 119.769ZM18.453 136.713L14.864 131.215 15.26 130.957 17.066 132.012 31.502 122.589 31.786 120.273 31.98 120.147 35.7 122.9 35.811 123.069 26.897 128.888 26.966 128.993C27.978 129.214 28.823 129.515 29.5 129.894 30.174 130.268 30.746 130.816 31.217 131.537V131.537C31.836 132.484 32.108 133.431 32.035 134.377 31.967 135.319 31.448 136.107 30.479 136.739V136.739L23.237 141.467 23.466 143.528 23.07 143.786 19.481 138.288 19.877 138.03 21.647 139.189 27.831 135.152C28.536 134.691 28.926 134.13 29 133.468 29.072 132.814 28.891 132.153 28.455 131.486V131.486C28.188 131.077 27.828 130.667 27.376 130.256 26.922 129.854 26.461 129.595 25.993 129.478V129.478L18.5 134.369 18.849 136.455ZM31.659 152.621L26.822 147.832 27.154 147.496 29.149 148.154 35.294 141.947 35.071 139.623 35.241 139.452 39.272 141.136 39.436 141.299 37.858 143.277 37.94 143.358C38.78 143.15 39.457 143.046 39.97 143.048 40.493 143.05 40.909 143.132 41.219 143.294 41.533 143.452 41.814 143.653 42.061 143.897V143.897C42.189 144.023 42.31 144.175 42.424 144.352 42.534 144.533 42.617 144.692 42.672 144.828V144.828C42.769 145.059 42.831 145.288 42.86 145.515 42.888 145.733 42.841 145.904 42.719 146.027V146.027C42.592 146.155 42.441 146.254 42.264 146.323V146.323L40.733 146.992 40.589 146.849 40.141 145.836C40.031 145.618 39.909 145.421 39.777 145.244 39.648 145.072 39.507 144.909 39.351 144.756V144.756C38.758 144.168 37.984 143.967 37.03 144.154V144.154L31.129 150.115 31.992 152.285ZM42.114 160.841V160.841C41.148 160.217 40.515 159.46 40.217 158.571 39.918 157.682 40.076 156.763 40.689 155.812V155.812L45.401 148.514 44.312 146.732 44.569 146.336 48.465 148.851 43.738 156.174C43.295 156.86 43.165 157.518 43.347 158.148 43.535 158.782 43.964 159.315 44.633 159.747V159.747C45.044 160.012 45.543 160.234 46.13 160.415 46.712 160.592 47.241 160.638 47.716 160.554V160.554L52.521 153.11 51.336 151.266 51.592 150.869 55.61 153.463 49.152 163.467 50.385 165.273 50.129 165.67 46.095 163.066 47.099 161.51 46.969 161.427C45.97 161.647 45.086 161.718 44.316 161.642 43.556 161.565 42.822 161.297 42.114 160.841ZM59.231 169.827V169.827C58.358 169.483 57.709 168.955 57.285 168.242 56.861 167.529 56.818 166.745 57.155 165.89V165.89L60.551 157.269 58.371 156.41 58.456 156.195 61.234 156.087 64.549 153.932 64.791 154.027 63.611 157.024 67.235 158.451 66.741 159.707 63.116 158.28 59.922 166.389C59.736 166.862 59.803 167.286 60.125 167.661 60.451 168.045 60.895 168.348 61.457 168.569V168.569C61.804 168.706 62.128 168.813 62.429 168.89 62.738 168.963 63.023 169.02 63.284 169.061V169.061L63.365 169.093 63.234 169.425C62.848 169.756 62.299 169.992 61.587 170.133 60.871 170.266 60.086 170.164 59.231 169.827ZM74.467 156.485V156.485C73.948 156.361 73.561 156.086 73.306 155.662 73.043 155.242 72.973 154.773 73.097 154.254V154.254C73.224 153.722 73.5 153.332 73.923 153.083 74.34 152.833 74.807 152.769 75.326 152.894V152.894C75.839 153.016 76.224 153.284 76.483 153.696 76.747 154.109 76.816 154.582 76.689 155.113V155.113C76.565 155.632 76.29 156.019 75.866 156.274 75.446 156.537 74.98 156.608 74.467 156.485ZM73.717 173.705L67.444 172.203 67.554 171.744 69.6 171.272 71.64 162.748 70.246 160.868 70.299 160.643 74.894 160.087 75.1 160.136 72.282 171.914 73.827 173.245ZM89.404 179.999V179.999C89.147 180.009 88.92 179.961 88.722 179.853 88.525 179.746 88.419 179.535 88.406 179.22V179.22C88.403 179.143 88.416 179.001 88.446 178.794 88.476 178.587 88.545 178.15 88.652 177.482V177.482L88.825 177.475C89.162 177.538 89.428 177.588 89.623 177.625 89.824 177.668 90.05 177.684 90.3 177.674V177.674C90.711 177.657 91.061 177.549 91.348 177.35 91.636 177.151 91.844 176.747 91.973 176.137 92.102 175.527 92.139 174.586 92.086 173.314V173.314L91.406 157.111 88.987 156.035 88.967 155.573 96.789 155.244 96.809 155.707 94.459 156.983 94.906 167.618C94.999 169.827 94.86 171.808 94.489 173.561 94.126 175.319 93.543 176.676 92.74 177.629V177.629C92.219 178.256 91.789 178.734 91.449 179.063 91.109 179.393 90.787 179.625 90.484 179.76 90.175 179.902 89.815 179.981 89.404 179.999ZM106.953 173.107V173.107C106.04 173.328 105.223 173.241 104.499 172.848 103.768 172.449 103.287 171.775 103.057 170.826V170.826C102.832 169.895 102.975 169.01 103.486 168.172 103.998 167.334 105.039 166.513 106.611 165.71V165.71L109.167 164.426 108.684 162.43C108.519 161.749 108.131 161.241 107.521 160.906 106.905 160.573 106.265 160.486 105.603 160.646V160.646C104.897 160.817 104.451 161.117 104.263 161.546 104.075 161.969 104.057 162.495 104.21 163.126V163.126L104.43 164.035 104.323 164.21 102.749 164.591C102.468 164.659 102.262 164.656 102.131 164.582 101.999 164.501 101.892 164.289 101.809 163.946V163.946C101.707 163.527 101.733 163.074 101.887 162.588 102.045 162.093 102.351 161.622 102.805 161.175V161.175C103.286 160.675 103.793 160.245 104.327 159.884 104.868 159.521 105.469 159.26 106.132 159.1V159.1C106.856 158.924 107.58 158.855 108.303 158.892 109.02 158.93 109.645 159.136 110.179 159.509 110.712 159.883 111.076 160.469 111.27 161.269V161.269L113.193 169.216C113.362 169.314 113.578 169.384 113.839 169.426 114.099 169.462 114.439 169.43 114.857 169.329V169.329L115.851 169.088 115.977 169.117 116.017 169.286C115.889 169.74 115.629 170.18 115.236 170.606 114.849 171.03 114.321 171.323 113.653 171.485V171.485C113.01 171.641 112.45 171.611 111.975 171.395 111.499 171.18 111.111 170.817 110.809 170.309V170.309L110.603 170.358C110.229 170.971 109.727 171.536 109.098 172.052 108.467 172.562 107.752 172.913 106.953 173.107ZM105.501 169.569V169.569C105.787 170.75 106.623 171.173 108.01 170.837V170.837C108.429 170.736 108.821 170.594 109.187 170.413 109.554 170.232 109.968 169.976 110.43 169.646V169.646L109.41 165.429C108.105 166.023 107.158 166.553 106.57 167.019 105.976 167.487 105.624 167.919 105.515 168.316 105.4 168.714 105.395 169.132 105.501 169.569ZM116.797 152.021V152.021C116.306 152.231 115.832 152.242 115.374 152.053 114.912 151.873 114.576 151.538 114.367 151.048V151.048C114.152 150.545 114.14 150.068 114.331 149.616 114.516 149.166 114.853 148.836 115.344 148.626V148.626C115.829 148.419 116.297 148.404 116.751 148.58 117.21 148.754 117.547 149.092 117.762 149.595V149.595C117.971 150.085 117.982 150.56 117.794 151.018 117.614 151.479 117.281 151.814 116.797 152.021ZM126.468 166.288L120.538 168.826 120.352 168.392 121.713 166.792 118.265 158.734 116.024 158.057 115.933 157.845 119.288 154.657 119.483 154.574 124.248 165.707 126.282 165.854ZM135.602 161.177V161.177C134.808 161.677 134.083 162.04 133.427 162.264 132.766 162.482 132.051 162.626 131.281 162.694V162.694L129.527 159.913 129.902 159.676 131.542 160.523C132.664 161.084 133.795 161.005 134.937 160.285V160.285C135.595 159.87 136.009 159.4 136.179 158.875 136.344 158.353 136.26 157.828 135.928 157.301V157.301C135.657 156.871 135.326 156.594 134.935 156.468 134.547 156.347 134.078 156.32 133.527 156.387 132.985 156.455 132.326 156.536 131.549 156.631V156.631C130.45 156.792 129.53 156.784 128.787 156.606 128.039 156.432 127.409 155.94 126.898 155.13V155.13C126.49 154.483 126.302 153.793 126.333 153.059 126.366 152.316 126.566 151.616 126.934 150.958 127.308 150.297 127.807 149.769 128.432 149.375V149.375C129.03 148.998 129.637 148.713 130.254 148.522 130.871 148.331 131.519 148.203 132.2 148.138V148.138L133.939 150.895 133.588 151.116 131.96 150.342C130.869 149.829 129.927 149.823 129.133 150.324V150.324C128.589 150.666 128.237 151.078 128.077 151.559 127.917 152.04 127.988 152.52 128.29 152.999V152.999C128.622 153.526 129.077 153.813 129.653 153.86 130.221 153.904 131.033 153.848 132.089 153.691V153.691C132.701 153.602 133.317 153.529 133.935 153.473 134.552 153.426 135.144 153.516 135.713 153.743 136.285 153.975 136.816 154.48 137.306 155.257V155.257C137.786 156.018 137.986 156.781 137.906 157.546 137.821 158.314 137.566 159.019 137.141 159.659 136.708 160.297 136.195 160.803 135.602 161.177ZM147.9 150.066L147.411 150.611 135.458 146.15 133.511 147.007 133.159 146.692 138.031 141.257 138.383 141.573 137.47 143.862 137.599 143.978 145.321 146.963 145.398 146.877 141.185 137.739 141.674 137.194 151.152 140.329 151.229 140.243 147.561 133.096 147.446 132.993 145.314 133.84 144.963 133.525 148.798 129.246 149.15 129.562 148.461 131.818 153.912 143.36 153.423 143.906 143.865 140.816ZM162.532 132.251V132.251C162.087 133.077 161.475 133.627 160.699 133.902 159.914 134.179 159.091 134.085 158.231 133.621V133.621C157.389 133.166 156.827 132.468 156.546 131.528 156.265 130.587 156.351 129.264 156.804 127.558V127.558L157.56 124.799 155.753 123.824C155.136 123.491 154.499 123.439 153.842 123.669 153.182 123.904 152.69 124.321 152.366 124.921V124.921C152.021 125.56 151.945 126.093 152.139 126.519 152.327 126.942 152.707 127.307 153.278 127.616V127.616L154.101 128.06 154.159 128.256 153.39 129.681C153.252 129.936 153.112 130.087 152.97 130.134 152.822 130.178 152.592 130.116 152.281 129.948V129.948C151.902 129.744 151.583 129.422 151.324 128.982 151.062 128.534 150.916 127.992 150.887 127.355V127.355C150.837 126.663 150.857 125.998 150.946 125.359 151.038 124.715 151.246 124.093 151.57 123.494V123.494C151.924 122.838 152.356 122.253 152.867 121.74 153.375 121.232 153.946 120.905 154.581 120.758 155.215 120.612 155.894 120.734 156.618 121.124V121.124L163.813 125.009C163.999 124.949 164.195 124.835 164.402 124.669 164.602 124.5 164.805 124.226 165.01 123.847V123.847L165.495 122.948 165.601 122.874 165.754 122.956C166.006 123.355 166.159 123.843 166.213 124.42 166.269 124.991 166.135 125.579 165.808 126.185V126.185C165.493 126.767 165.097 127.163 164.619 127.373 164.14 127.582 163.611 127.628 163.031 127.512V127.512L162.93 127.699C163.136 128.387 163.22 129.138 163.183 129.95 163.14 130.76 162.923 131.527 162.532 132.251ZM158.932 130.964V130.964C160.001 131.541 160.874 131.202 161.552 129.947V129.947C161.757 129.568 161.914 129.181 162.024 128.788 162.135 128.394 162.222 127.915 162.285 127.351V127.351L158.467 125.29C158.036 126.657 157.797 127.715 157.751 128.464 157.701 129.219 157.787 129.769 158.009 130.116 158.228 130.468 158.536 130.75 158.932 130.964ZM170.442 113.403L168.361 119.509 167.914 119.356 167.623 117.312 151.305 111.75 149.315 112.926 149.096 112.851 148.963 108.252 149.037 108.033 168.522 114.674 169.995 113.251Z" fill="#61777f" data-fill-palette-color="secondary"></path><path d="M21.402 64.92V64.92C21.047 65.961 20.648 66.813 20.205 67.476 19.755 68.138 19.209 68.794 18.566 69.444V69.444L14.403 68.299 14.54 67.898 17.677 67.511C18.354 67.097 18.895 66.646 19.299 66.159 19.703 65.672 20 65.149 20.191 64.589V64.589C20.517 63.634 20.527 62.795 20.223 62.074 19.917 61.358 19.335 60.854 18.478 60.561V60.561C17.802 60.331 17.212 60.3 16.707 60.467 16.195 60.632 15.679 60.962 15.157 61.456 14.629 61.949 14.001 62.556 13.272 63.279V63.279C12.314 64.256 11.421 64.953 10.593 65.37 9.759 65.785 8.782 65.802 7.663 65.42V65.42C7.073 65.219 6.549 64.881 6.093 64.407 5.645 63.928 5.286 63.367 5.016 62.725 4.746 62.083 4.584 61.413 4.53 60.716 4.472 60.01 4.555 59.328 4.779 58.671V58.671C5.042 57.899 5.381 57.206 5.793 56.593 6.206 55.98 6.698 55.404 7.269 54.865V54.865L11.304 55.966 11.17 56.358 8.085 56.743C7.499 57.127 7.041 57.504 6.711 57.874 6.384 58.237 6.128 58.69 5.943 59.231V59.231C5.7 59.943 5.739 60.615 6.06 61.247 6.375 61.878 6.894 62.316 7.618 62.563V62.563C8.427 62.839 9.148 62.806 9.781 62.465 10.409 62.116 11.179 61.472 12.09 60.533V60.533C12.909 59.705 13.644 59.042 14.296 58.545 14.956 58.043 15.611 57.726 16.26 57.595 16.913 57.471 17.66 57.552 18.499 57.839V57.839C19.272 58.102 19.897 58.499 20.376 59.029 20.86 59.56 21.21 60.166 21.427 60.844 21.642 61.528 21.745 62.222 21.736 62.925 21.727 63.629 21.616 64.294 21.402 64.92ZM28.316 50.539L25.187 55.474 24.837 55.252 25.022 53.394 12.059 45.173 10.084 45.804 9.913 45.695 10.77 41.661 10.868 41.506 18.864 46.577 18.921 46.488C18.729 45.59 18.661 44.797 18.717 44.109 18.772 43.421 19.005 42.754 19.415 42.108V42.108C19.955 41.256 20.621 40.685 21.414 40.396 22.206 40.107 23.036 40.238 23.905 40.789V40.789L30.403 44.909 31.994 43.966 32.344 44.188 29.215 49.123 28.865 48.901 29.141 47.043 23.587 43.522C22.958 43.122 22.365 43.013 21.809 43.193 21.248 43.37 20.776 43.76 20.394 44.362V44.362C20.16 44.731 19.963 45.174 19.804 45.689 19.641 46.21 19.602 46.68 19.686 47.099V47.099L26.404 51.359 27.966 50.317ZM39.423 36.817L35.181 41.138 34.886 40.848 35.455 39.07 29.903 33.619 27.839 33.822 27.695 33.68 29.175 30.08 29.323 29.929 31.089 31.337 31.163 31.262C30.97 30.513 30.873 29.91 30.874 29.451 30.878 28.987 30.95 28.616 31.088 28.337 31.227 28.059 31.406 27.807 31.627 27.582V27.582C31.735 27.472 31.868 27.369 32.026 27.272 32.189 27.17 32.331 27.094 32.454 27.043V27.043C32.657 26.955 32.859 26.896 33.059 26.867 33.254 26.842 33.409 26.886 33.524 26.999V26.999C33.634 27.107 33.719 27.24 33.78 27.399V27.399L34.385 28.764 34.257 28.894 33.361 29.285C33.162 29.386 32.985 29.497 32.832 29.617 32.683 29.732 32.541 29.858 32.406 29.996V29.996C31.879 30.532 31.701 31.223 31.873 32.066V32.066L37.198 37.294 39.127 36.527ZM48.369 30.217V30.217C47.513 30.787 46.668 31.038 45.834 30.968 45.005 30.895 44.311 30.439 43.751 29.599V29.599L39.462 23.165 37.63 23.424 37.395 23.071 40.82 20.788 45.12 27.238C45.527 27.848 46.02 28.187 46.599 28.257 47.182 28.332 47.77 28.171 48.364 27.776V27.776C48.728 27.533 49.085 27.206 49.436 26.794 49.787 26.382 50.012 25.966 50.11 25.545V25.545L45.736 18.983 43.815 19.301 43.58 18.948 47.118 16.59 52.996 25.406 54.918 25.04 55.148 25.385 51.586 27.76 50.672 26.388 50.567 26.457C50.387 27.358 50.131 28.104 49.8 28.695 49.466 29.296 48.99 29.803 48.369 30.217ZM62.877 22.347V22.347C62.104 22.664 61.365 22.725 60.659 22.528 59.944 22.328 59.432 21.85 59.122 21.095V21.095L55.991 13.469 54.055 14.264 53.975 14.068 55.703 12.285 56.497 8.863 56.711 8.775 57.799 11.424 61.009 10.106 61.467 11.221 58.256 12.539 61.201 19.71C61.372 20.126 61.679 20.358 62.122 20.406 62.563 20.447 63.033 20.365 63.533 20.16V20.16C63.836 20.035 64.112 19.905 64.362 19.767 64.603 19.627 64.817 19.49 65.006 19.357V19.357L65.077 19.328 65.198 19.622C65.159 20.069 64.953 20.556 64.579 21.085 64.2 21.616 63.633 22.037 62.877 22.347ZM69.138 4.366V4.366C68.682 4.479 68.264 4.42 67.883 4.19 67.503 3.966 67.256 3.626 67.144 3.171V3.171C67.027 2.696 67.085 2.275 67.318 1.906 67.549 1.531 67.893 1.287 68.349 1.174V1.174C68.804 1.062 69.222 1.117 69.602 1.341 69.974 1.56 70.218 1.907 70.336 2.381V2.381C70.448 2.837 70.392 3.251 70.166 3.625 69.936 4.006 69.593 4.253 69.138 4.366ZM75.589 18.285L70.02 19.662 69.921 19.259 71.338 18.045 69.466 10.473 67.602 9.563 67.551 9.357 70.95 7.036 71.128 6.992 73.716 17.457 75.49 17.882ZM89.28 21.682V21.682C89.049 21.671 88.849 21.609 88.68 21.498 88.512 21.387 88.435 21.19 88.448 20.908V20.908C88.452 20.844 88.477 20.719 88.524 20.535 88.565 20.357 88.661 19.975 88.812 19.391V19.391L88.966 19.398C89.258 19.483 89.489 19.549 89.661 19.596 89.832 19.649 90.033 19.682 90.264 19.693V19.693C90.63 19.711 90.946 19.642 91.211 19.488 91.482 19.34 91.698 19 91.858 18.467 92.026 17.934 92.137 17.103 92.192 15.973V15.973L92.891 1.556 90.832 0.414 90.852 0 97.806 0.337 97.785 0.751 95.607 1.688 95.148 11.155C95.052 13.12 94.772 14.863 94.305 16.385 93.839 17.913 93.21 19.07 92.419 19.855V19.855C91.911 20.365 91.493 20.753 91.165 21.02 90.837 21.281 90.532 21.463 90.251 21.565 89.963 21.66 89.639 21.699 89.28 21.682ZM104.616 19.314V19.314C103.805 19.112 103.192 18.704 102.775 18.09 102.365 17.477 102.266 16.747 102.478 15.899V15.899C102.683 15.075 103.16 14.439 103.908 13.99 104.657 13.541 105.817 13.324 107.39 13.339V13.339L109.944 13.38 110.385 11.612C110.538 11.001 110.44 10.437 110.093 9.919 109.745 9.402 109.275 9.069 108.682 8.921V8.921C108.059 8.765 107.585 8.819 107.26 9.083 106.938 9.34 106.706 9.75 106.566 10.311V10.311L106.365 11.115 106.202 11.214 104.808 10.866C104.558 10.803 104.399 10.714 104.328 10.597 104.258 10.48 104.261 10.269 104.338 9.963V9.963C104.429 9.595 104.638 9.25 104.964 8.927 105.283 8.603 105.716 8.356 106.262 8.188V8.188C106.848 7.989 107.427 7.859 107.999 7.797 108.571 7.734 109.153 7.777 109.746 7.925V7.925C110.382 8.084 110.98 8.329 111.54 8.661 112.095 8.985 112.503 9.405 112.765 9.921 113.035 10.432 113.081 11.043 112.904 11.754V11.754L111.14 18.817C111.229 18.965 111.369 19.109 111.559 19.249 111.744 19.382 112.024 19.495 112.399 19.588V19.588L113.287 19.81 113.367 19.89 113.329 20.039C113.041 20.345 112.657 20.584 112.177 20.755 111.689 20.932 111.152 20.947 110.565 20.8V20.8C109.992 20.657 109.562 20.401 109.277 20.031 108.99 19.668 108.833 19.221 108.806 18.691V18.691L108.629 18.647C108.075 18.979 107.446 19.216 106.742 19.358 106.029 19.505 105.321 19.49 104.616 19.314ZM104.917 15.921V15.921C104.655 16.969 105.142 17.647 106.376 17.955V17.955C106.751 18.049 107.119 18.101 107.48 18.112 107.85 18.118 108.285 18.087 108.785 18.02V18.02L109.722 14.269C108.447 14.202 107.479 14.229 106.82 14.349 106.16 14.47 105.704 14.667 105.45 14.941 105.191 15.208 105.013 15.535 104.917 15.921ZM125.21 10.023V10.023C124.781 9.833 124.485 9.531 124.324 9.116 124.161 8.706 124.174 8.287 124.363 7.858V7.858C124.56 7.411 124.864 7.112 125.274 6.963 125.687 6.808 126.108 6.825 126.537 7.015V7.015C126.966 7.204 127.263 7.503 127.426 7.913 127.587 8.314 127.568 8.738 127.371 9.185V9.185C127.182 9.614 126.884 9.907 126.477 10.065 126.062 10.226 125.639 10.212 125.21 10.023ZM121.804 24.981L116.555 22.665 116.722 22.286 118.587 22.192 121.736 15.055 120.817 13.196 120.903 13.002 125.011 13.244 125.179 13.318 120.828 23.18 121.971 24.602ZM129.449 30.006V30.006C128.749 29.549 128.19 29.096 127.77 28.645 127.345 28.191 126.963 27.665 126.624 27.067V27.067L128.222 24.621 128.553 24.837 128.485 26.475C128.44 27.589 128.921 28.475 129.927 29.133V29.133C130.509 29.512 131.041 29.672 131.526 29.613 132.007 29.558 132.4 29.297 132.706 28.829V28.829C132.952 28.452 133.055 28.082 133.016 27.719 132.968 27.357 132.815 26.969 132.556 26.554 132.301 26.134 131.993 25.63 131.633 25.041V25.041C131.092 24.212 130.756 23.463 130.625 22.794 130.488 22.121 130.652 21.429 131.116 20.719V20.719C131.489 20.149 131.979 19.739 132.586 19.491 133.199 19.247 133.841 19.151 134.512 19.206 135.182 19.26 135.792 19.467 136.341 19.825V19.825C136.869 20.17 137.326 20.557 137.713 20.986 138.095 21.412 138.435 21.891 138.732 22.423V22.423L137.15 24.845 136.844 24.645 136.869 23.037C136.885 21.966 136.544 21.201 135.844 20.744V20.744C135.36 20.428 134.894 20.296 134.445 20.348 133.996 20.401 133.634 20.637 133.36 21.056V21.056C133.054 21.525 132.991 21.998 133.17 22.476 133.341 22.955 133.688 23.593 134.213 24.389V24.389C134.509 24.851 134.792 25.324 135.06 25.806 135.332 26.283 135.481 26.795 135.508 27.342 135.534 27.889 135.324 28.505 134.878 29.188V29.188C134.439 29.861 133.891 30.305 133.235 30.522 132.588 30.736 131.926 30.792 131.25 30.687 130.571 30.574 129.971 30.347 129.449 30.006ZM139.492 38.586L139.064 38.101 144.237 27.993 143.686 26.189 144.004 25.909 148.305 30.781 147.987 31.061 146.058 30.012 145.942 30.114 142.497 36.628 142.567 36.708 151.081 33.925 151.515 34.416 147.755 42.468 147.825 42.548 154.525 40.041 154.626 39.952 154.1 37.986 154.418 37.705 157.8 41.537 157.481 41.817 155.559 40.98 144.794 44.593 144.367 44.108 148.084 35.979ZM151.346 53.994V53.994C150.952 53.257 150.843 52.528 151.019 51.807 151.197 51.092 151.672 50.528 152.443 50.116V50.116C153.191 49.716 153.983 49.642 154.818 49.896 155.653 50.149 156.593 50.863 157.638 52.04V52.04L159.321 53.96 160.928 53.101C161.483 52.804 161.836 52.353 161.986 51.748 162.136 51.143 162.068 50.571 161.78 50.032V50.032C161.476 49.465 161.118 49.15 160.705 49.087 160.298 49.02 159.839 49.124 159.329 49.396V49.396L158.598 49.787 158.415 49.732 157.738 48.465C157.617 48.239 157.576 48.06 157.615 47.929 157.655 47.799 157.814 47.659 158.091 47.511V47.511C158.426 47.332 158.822 47.255 159.28 47.28 159.735 47.299 160.208 47.454 160.699 47.746V47.746C161.239 48.047 161.724 48.389 162.155 48.771 162.585 49.153 162.944 49.613 163.232 50.152V50.152C163.541 50.73 163.761 51.338 163.891 51.976 164.023 52.605 163.986 53.19 163.779 53.73 163.581 54.273 163.159 54.718 162.513 55.063V55.063L156.094 58.496C156.044 58.662 156.031 58.862 156.054 59.097 156.081 59.323 156.185 59.607 156.367 59.947V59.947L156.799 60.754 156.793 60.867 156.657 60.94C156.237 60.931 155.802 60.806 155.353 60.566 154.894 60.322 154.523 59.934 154.238 59.401V59.401C153.959 58.88 153.861 58.389 153.943 57.93 154.02 57.473 154.246 57.057 154.621 56.682V56.682L154.534 56.52C153.916 56.333 153.319 56.026 152.74 55.599 152.153 55.169 151.689 54.634 151.346 53.994ZM154.063 51.939V51.939C153.111 52.449 152.935 53.264 153.535 54.387V54.387C153.717 54.727 153.925 55.035 154.16 55.31 154.404 55.588 154.718 55.89 155.104 56.216V56.216L158.513 54.392C157.707 53.402 157.038 52.703 156.506 52.295 155.974 51.887 155.521 51.681 155.147 51.677 154.776 51.664 154.415 51.751 154.063 51.939ZM158.619 70.338L156.811 64.893 157.204 64.762 158.52 66.063 173.087 61.225 173.855 59.314 174.047 59.25 176.62 62.44 176.687 62.641 159.301 68.414 159.012 70.207Z" fill="#000000" data-fill-palette-color="primary"></path><path d="M3.313 89.815C3.313 85.686 6.661 82.339 10.79 82.339 14.92 82.339 18.267 85.686 18.267 89.815 18.267 93.945 14.92 97.292 10.79 97.292 6.661 97.292 3.313 93.945 3.313 89.815ZM159.513 89.815C159.513 85.686 162.86 82.339 166.99 82.339 171.119 82.339 174.467 85.686 174.467 89.815 174.467 93.945 171.119 97.292 166.99 97.292 162.86 97.292 159.513 93.945 159.513 89.815Z" fill="#000000" data-fill-palette-color="primary"></path></g></svg></g></svg></g></svg></g></svg></g></svg></g></svg></g><defs></defs></svg><rect width="320" height="360" fill="none" stroke="none" visibility="hidden"></rect></g></svg></g></svg>